<mxfile host="app.diagrams.net" modified="2023-05-07T17:51:08.426Z" agent="Mozilla/5.0 (X11; Linux x86_64; rv:109.0) Gecko/20100101 Firefox/113.0" etag="lGIw2BA8glrggSS9Z1wX" version="21.2.9" type="github">
  <diagram name="Page-1" id="4zOBWHrh0Ymtk0zH_QGe">
    <mxGraphModel dx="1434" dy="1890" grid="1" gridSize="10" guides="1" tooltips="1" connect="1" arrows="1" fold="1" page="1" pageScale="1" pageWidth="850" pageHeight="1100" math="0" shadow="0">
      <root>
        <mxCell id="0" />
        <mxCell id="1" parent="0" />
        <mxCell id="foepnIXhf-Chz_zVTdfU-19" style="edgeStyle=orthogonalEdgeStyle;rounded=0;orthogonalLoop=1;jettySize=auto;html=1;entryX=0;entryY=0.5;entryDx=0;entryDy=0;" parent="1" source="foepnIXhf-Chz_zVTdfU-7" target="foepnIXhf-Chz_zVTdfU-18" edge="1">
          <mxGeometry relative="1" as="geometry" />
        </mxCell>
        <mxCell id="foepnIXhf-Chz_zVTdfU-7" value=".fcs files" style="strokeWidth=2;html=1;shape=mxgraph.flowchart.multi-document;whiteSpace=wrap;" parent="1" vertex="1">
          <mxGeometry x="16" y="260" width="88" height="60" as="geometry" />
        </mxCell>
        <mxCell id="foepnIXhf-Chz_zVTdfU-15" style="edgeStyle=orthogonalEdgeStyle;rounded=0;orthogonalLoop=1;jettySize=auto;html=1;entryX=0;entryY=0.5;entryDx=0;entryDy=0;" parent="1" source="foepnIXhf-Chz_zVTdfU-8" target="foepnIXhf-Chz_zVTdfU-11" edge="1">
          <mxGeometry relative="1" as="geometry" />
        </mxCell>
        <mxCell id="foepnIXhf-Chz_zVTdfU-8" value="metadata.xlsx" style="strokeWidth=2;html=1;shape=mxgraph.flowchart.document2;whiteSpace=wrap;size=0.25;" parent="1" vertex="1">
          <mxGeometry x="10" y="120" width="100" height="60" as="geometry" />
        </mxCell>
        <mxCell id="foepnIXhf-Chz_zVTdfU-20" value="kit barcode" style="edgeStyle=orthogonalEdgeStyle;rounded=0;orthogonalLoop=1;jettySize=auto;html=1;entryX=0.5;entryY=0;entryDx=0;entryDy=0;" parent="1" source="foepnIXhf-Chz_zVTdfU-9" target="foepnIXhf-Chz_zVTdfU-18" edge="1">
          <mxGeometry relative="1" as="geometry" />
        </mxCell>
        <mxCell id="foepnIXhf-Chz_zVTdfU-32" style="edgeStyle=orthogonalEdgeStyle;rounded=0;orthogonalLoop=1;jettySize=auto;html=1;entryX=0;entryY=0.5;entryDx=0;entryDy=0;" parent="1" source="foepnIXhf-Chz_zVTdfU-9" target="foepnIXhf-Chz_zVTdfU-30" edge="1">
          <mxGeometry relative="1" as="geometry" />
        </mxCell>
        <mxCell id="foepnIXhf-Chz_zVTdfU-9" value="metadata" style="shape=parallelogram;html=1;strokeWidth=2;perimeter=parallelogramPerimeter;whiteSpace=wrap;rounded=1;arcSize=12;size=0.23;" parent="1" vertex="1">
          <mxGeometry x="375" y="120" width="100" height="60" as="geometry" />
        </mxCell>
        <mxCell id="foepnIXhf-Chz_zVTdfU-16" style="edgeStyle=orthogonalEdgeStyle;rounded=0;orthogonalLoop=1;jettySize=auto;html=1;entryX=0;entryY=0.5;entryDx=0;entryDy=0;" parent="1" source="foepnIXhf-Chz_zVTdfU-11" target="foepnIXhf-Chz_zVTdfU-9" edge="1">
          <mxGeometry relative="1" as="geometry" />
        </mxCell>
        <mxCell id="foepnIXhf-Chz_zVTdfU-11" value="Read file" style="rounded=1;whiteSpace=wrap;html=1;absoluteArcSize=1;arcSize=14;strokeWidth=2;" parent="1" vertex="1">
          <mxGeometry x="220" y="100" width="100" height="100" as="geometry" />
        </mxCell>
        <mxCell id="foepnIXhf-Chz_zVTdfU-12" value="&lt;div&gt;Final Dataset :&lt;/div&gt;&lt;div&gt;(data, label)&lt;br&gt;&lt;/div&gt;" style="strokeWidth=2;html=1;shape=mxgraph.flowchart.terminator;whiteSpace=wrap;" parent="1" vertex="1">
          <mxGeometry x="560" y="660" width="100" height="60" as="geometry" />
        </mxCell>
        <mxCell id="foepnIXhf-Chz_zVTdfU-14" style="edgeStyle=orthogonalEdgeStyle;rounded=0;orthogonalLoop=1;jettySize=auto;html=1;" parent="1" source="foepnIXhf-Chz_zVTdfU-13" target="foepnIXhf-Chz_zVTdfU-11" edge="1">
          <mxGeometry relative="1" as="geometry" />
        </mxCell>
        <mxCell id="foepnIXhf-Chz_zVTdfU-13" value="Start" style="strokeWidth=2;html=1;shape=mxgraph.flowchart.start_1;whiteSpace=wrap;" parent="1" vertex="1">
          <mxGeometry x="375" width="100" height="60" as="geometry" />
        </mxCell>
        <mxCell id="foepnIXhf-Chz_zVTdfU-22" style="edgeStyle=orthogonalEdgeStyle;rounded=0;orthogonalLoop=1;jettySize=auto;html=1;" parent="1" source="foepnIXhf-Chz_zVTdfU-18" target="foepnIXhf-Chz_zVTdfU-21" edge="1">
          <mxGeometry relative="1" as="geometry" />
        </mxCell>
        <mxCell id="foepnIXhf-Chz_zVTdfU-18" value="&lt;div&gt;Read corresponding file :&lt;/div&gt;&lt;div&gt;{kit_barcode}_Ungated.fcs&lt;br&gt;&lt;/div&gt;" style="rounded=1;whiteSpace=wrap;html=1;absoluteArcSize=1;arcSize=14;strokeWidth=2;" parent="1" vertex="1">
          <mxGeometry x="165" y="240" width="210" height="100" as="geometry" />
        </mxCell>
        <mxCell id="foepnIXhf-Chz_zVTdfU-24" value="yes" style="edgeStyle=orthogonalEdgeStyle;rounded=0;orthogonalLoop=1;jettySize=auto;html=1;entryX=1;entryY=0.5;entryDx=0;entryDy=0;" parent="1" source="foepnIXhf-Chz_zVTdfU-21" target="foepnIXhf-Chz_zVTdfU-23" edge="1">
          <mxGeometry relative="1" as="geometry" />
        </mxCell>
        <mxCell id="foepnIXhf-Chz_zVTdfU-26" value="no" style="edgeStyle=orthogonalEdgeStyle;rounded=0;orthogonalLoop=1;jettySize=auto;html=1;" parent="1" source="foepnIXhf-Chz_zVTdfU-21" target="foepnIXhf-Chz_zVTdfU-25" edge="1">
          <mxGeometry relative="1" as="geometry" />
        </mxCell>
        <mxCell id="foepnIXhf-Chz_zVTdfU-21" value="&lt;div&gt;Fixed number &lt;br&gt;&lt;/div&gt;&lt;div&gt;of samples ?&lt;br&gt;&lt;/div&gt;" style="strokeWidth=2;html=1;shape=mxgraph.flowchart.decision;whiteSpace=wrap;" parent="1" vertex="1">
          <mxGeometry x="220" y="370" width="100" height="100" as="geometry" />
        </mxCell>
        <mxCell id="foepnIXhf-Chz_zVTdfU-27" style="edgeStyle=orthogonalEdgeStyle;rounded=0;orthogonalLoop=1;jettySize=auto;html=1;entryX=0;entryY=0.5;entryDx=0;entryDy=0;" parent="1" source="foepnIXhf-Chz_zVTdfU-23" target="foepnIXhf-Chz_zVTdfU-25" edge="1">
          <mxGeometry relative="1" as="geometry">
            <Array as="points">
              <mxPoint x="110" y="530" />
            </Array>
          </mxGeometry>
        </mxCell>
        <mxCell id="foepnIXhf-Chz_zVTdfU-23" value="&lt;div&gt;Select n random&lt;/div&gt;&lt;div&gt;rows (cells)&lt;br&gt;&lt;/div&gt;" style="rounded=1;whiteSpace=wrap;html=1;absoluteArcSize=1;arcSize=14;strokeWidth=2;" parent="1" vertex="1">
          <mxGeometry x="65" y="370" width="100" height="100" as="geometry" />
        </mxCell>
        <mxCell id="foepnIXhf-Chz_zVTdfU-31" style="edgeStyle=orthogonalEdgeStyle;rounded=0;orthogonalLoop=1;jettySize=auto;html=1;entryX=0;entryY=0.5;entryDx=0;entryDy=0;" parent="1" source="foepnIXhf-Chz_zVTdfU-25" target="foepnIXhf-Chz_zVTdfU-30" edge="1">
          <mxGeometry relative="1" as="geometry" />
        </mxCell>
        <mxCell id="foepnIXhf-Chz_zVTdfU-25" value="fcs data" style="shape=parallelogram;html=1;strokeWidth=2;perimeter=parallelogramPerimeter;whiteSpace=wrap;rounded=1;arcSize=12;size=0.23;" parent="1" vertex="1">
          <mxGeometry x="220" y="500" width="100" height="60" as="geometry" />
        </mxCell>
        <mxCell id="foepnIXhf-Chz_zVTdfU-46" style="edgeStyle=orthogonalEdgeStyle;rounded=0;orthogonalLoop=1;jettySize=auto;html=1;exitX=1;exitY=0.5;exitDx=0;exitDy=0;entryX=0;entryY=0.5;entryDx=0;entryDy=0;" parent="1" source="foepnIXhf-Chz_zVTdfU-30" target="foepnIXhf-Chz_zVTdfU-33" edge="1">
          <mxGeometry relative="1" as="geometry" />
        </mxCell>
        <mxCell id="foepnIXhf-Chz_zVTdfU-30" value="&lt;div&gt;Join metadata &lt;br&gt;&lt;/div&gt;&lt;div&gt;to fcs data using&lt;/div&gt;&lt;div&gt;kit barcode id&lt;br&gt;&lt;/div&gt;" style="rounded=1;whiteSpace=wrap;html=1;absoluteArcSize=1;arcSize=14;strokeWidth=2;" parent="1" vertex="1">
          <mxGeometry x="520" y="180" width="100" height="100" as="geometry" />
        </mxCell>
        <mxCell id="foepnIXhf-Chz_zVTdfU-44" value="covid column from metadata" style="edgeStyle=orthogonalEdgeStyle;rounded=0;orthogonalLoop=1;jettySize=auto;html=1;exitX=0.5;exitY=1;exitDx=0;exitDy=0;entryX=0.5;entryY=0;entryDx=0;entryDy=0;" parent="1" source="foepnIXhf-Chz_zVTdfU-33" target="foepnIXhf-Chz_zVTdfU-42" edge="1">
          <mxGeometry x="0.4359" relative="1" as="geometry">
            <Array as="points">
              <mxPoint x="700" y="290" />
              <mxPoint x="520" y="290" />
            </Array>
            <mxPoint as="offset" />
          </mxGeometry>
        </mxCell>
        <mxCell id="foepnIXhf-Chz_zVTdfU-51" value="All columns" style="edgeStyle=orthogonalEdgeStyle;rounded=0;orthogonalLoop=1;jettySize=auto;html=1;" parent="1" source="foepnIXhf-Chz_zVTdfU-33" target="foepnIXhf-Chz_zVTdfU-47" edge="1">
          <mxGeometry x="0.6" relative="1" as="geometry">
            <mxPoint as="offset" />
          </mxGeometry>
        </mxCell>
        <mxCell id="foepnIXhf-Chz_zVTdfU-33" value="joined data" style="shape=parallelogram;html=1;strokeWidth=2;perimeter=parallelogramPerimeter;whiteSpace=wrap;rounded=1;arcSize=12;size=0.23;" parent="1" vertex="1">
          <mxGeometry x="650" y="200" width="100" height="60" as="geometry" />
        </mxCell>
        <mxCell id="foepnIXhf-Chz_zVTdfU-55" style="edgeStyle=orthogonalEdgeStyle;rounded=0;orthogonalLoop=1;jettySize=auto;html=1;exitX=0.5;exitY=1;exitDx=0;exitDy=0;exitPerimeter=0;entryX=0.5;entryY=0;entryDx=0;entryDy=0;entryPerimeter=0;" parent="1" source="foepnIXhf-Chz_zVTdfU-38" target="foepnIXhf-Chz_zVTdfU-12" edge="1">
          <mxGeometry relative="1" as="geometry" />
        </mxCell>
        <mxCell id="foepnIXhf-Chz_zVTdfU-38" value="&lt;div&gt;&lt;br&gt;&lt;/div&gt;&lt;div&gt;labels&lt;/div&gt;" style="strokeWidth=2;html=1;shape=mxgraph.flowchart.database;whiteSpace=wrap;" parent="1" vertex="1">
          <mxGeometry x="490" y="560" width="60" height="60" as="geometry" />
        </mxCell>
        <mxCell id="foepnIXhf-Chz_zVTdfU-56" style="edgeStyle=orthogonalEdgeStyle;rounded=0;orthogonalLoop=1;jettySize=auto;html=1;exitX=0.5;exitY=1;exitDx=0;exitDy=0;exitPerimeter=0;entryX=0.5;entryY=0;entryDx=0;entryDy=0;entryPerimeter=0;" parent="1" source="foepnIXhf-Chz_zVTdfU-39" target="foepnIXhf-Chz_zVTdfU-12" edge="1">
          <mxGeometry relative="1" as="geometry" />
        </mxCell>
        <mxCell id="foepnIXhf-Chz_zVTdfU-39" value="&lt;div&gt;&lt;br&gt;&lt;/div&gt;&lt;div&gt;data&lt;/div&gt;" style="strokeWidth=2;html=1;shape=mxgraph.flowchart.database;whiteSpace=wrap;" parent="1" vertex="1">
          <mxGeometry x="670" y="560" width="60" height="60" as="geometry" />
        </mxCell>
        <mxCell id="foepnIXhf-Chz_zVTdfU-45" style="edgeStyle=orthogonalEdgeStyle;rounded=0;orthogonalLoop=1;jettySize=auto;html=1;exitX=0.5;exitY=1;exitDx=0;exitDy=0;entryX=0.5;entryY=0;entryDx=0;entryDy=0;entryPerimeter=0;" parent="1" source="foepnIXhf-Chz_zVTdfU-42" target="foepnIXhf-Chz_zVTdfU-38" edge="1">
          <mxGeometry relative="1" as="geometry" />
        </mxCell>
        <mxCell id="foepnIXhf-Chz_zVTdfU-42" value="Convert into tensor.float32" style="rounded=1;whiteSpace=wrap;html=1;absoluteArcSize=1;arcSize=14;strokeWidth=2;" parent="1" vertex="1">
          <mxGeometry x="470" y="470" width="100" height="60" as="geometry" />
        </mxCell>
        <mxCell id="foepnIXhf-Chz_zVTdfU-52" style="edgeStyle=orthogonalEdgeStyle;rounded=0;orthogonalLoop=1;jettySize=auto;html=1;exitX=0.5;exitY=1;exitDx=0;exitDy=0;" parent="1" source="foepnIXhf-Chz_zVTdfU-47" target="foepnIXhf-Chz_zVTdfU-49" edge="1">
          <mxGeometry relative="1" as="geometry" />
        </mxCell>
        <mxCell id="foepnIXhf-Chz_zVTdfU-47" value="Drop unwanted columns" style="rounded=1;whiteSpace=wrap;html=1;absoluteArcSize=1;arcSize=14;strokeWidth=2;" parent="1" vertex="1">
          <mxGeometry x="650" y="310" width="100" height="70" as="geometry" />
        </mxCell>
        <mxCell id="foepnIXhf-Chz_zVTdfU-53" style="edgeStyle=orthogonalEdgeStyle;rounded=0;orthogonalLoop=1;jettySize=auto;html=1;exitX=0.5;exitY=1;exitDx=0;exitDy=0;" parent="1" source="foepnIXhf-Chz_zVTdfU-49" target="foepnIXhf-Chz_zVTdfU-50" edge="1">
          <mxGeometry relative="1" as="geometry" />
        </mxCell>
        <mxCell id="foepnIXhf-Chz_zVTdfU-49" value="Normalize" style="rounded=1;whiteSpace=wrap;html=1;absoluteArcSize=1;arcSize=14;strokeWidth=2;" parent="1" vertex="1">
          <mxGeometry x="650" y="400" width="100" height="50" as="geometry" />
        </mxCell>
        <mxCell id="foepnIXhf-Chz_zVTdfU-54" style="edgeStyle=orthogonalEdgeStyle;rounded=0;orthogonalLoop=1;jettySize=auto;html=1;exitX=0.5;exitY=1;exitDx=0;exitDy=0;entryX=0.5;entryY=0;entryDx=0;entryDy=0;entryPerimeter=0;" parent="1" source="foepnIXhf-Chz_zVTdfU-50" target="foepnIXhf-Chz_zVTdfU-39" edge="1">
          <mxGeometry relative="1" as="geometry" />
        </mxCell>
        <mxCell id="foepnIXhf-Chz_zVTdfU-50" value="Convert into tensor.float32" style="rounded=1;whiteSpace=wrap;html=1;absoluteArcSize=1;arcSize=14;strokeWidth=2;" parent="1" vertex="1">
          <mxGeometry x="650" y="470" width="100" height="60" as="geometry" />
        </mxCell>
      </root>
    </mxGraphModel>
  </diagram>
</mxfile>
